%
M48
M72
T01C0.03100
T02C0.03900
T03C0.07900
%
T01
X66250Y47969
X56250Y57969
X46250Y62969
X36250Y62969
X26250Y62969
X26250Y77969
X36250Y77969
X46250Y77969
X56250Y77969
X66250Y77969
X76250Y77969
X86250Y77969
X96250Y77969
X106250Y77969
X116250Y77969
X126250Y77969
X136250Y77969
X146250Y77969
X156250Y77969
X166250Y77969
X146250Y67969
X136250Y67969
X126250Y67969
X116250Y67969
X106250Y67969
X96250Y67969
X86250Y67969
X76250Y67969
X146250Y117969
X146250Y137969
X136250Y137969
X126250Y137969
X116250Y137969
X106250Y137969
X96250Y137969
X86250Y137969
X76250Y137969
X66250Y137969
X56250Y137969
X46250Y137969
X36250Y137969
X26250Y137969
X46250Y152969
X56250Y152969
X86250Y152969
X96250Y152969
X81250Y177969
X106250Y187969
X136250Y197969
X141250Y182969
X171250Y192969
X191250Y177969
X201250Y172969
X211250Y152969
X206250Y137969
X191250Y130469
X166250Y137969
X156250Y137969
X156250Y152969
X166250Y152969
X136250Y152969
X206250Y97969
X231250Y107969
X256250Y82969
X281250Y57969
X221250Y47969
X191250Y62969
X266250Y107969
X346250Y132969
X356250Y142969
X316250Y172969
X336250Y192969
X336250Y207969
X326250Y212969
X276250Y207969
X246250Y212969
X166250Y212969
X166250Y287969
X246250Y287969
X306250Y287969
X51250Y187969
X26250Y187969
T02
X26250Y222969
X36250Y222969
X46250Y222969
X66250Y222969
X76250Y222969
X86250Y222969
X246250Y152969
X276250Y152969
X296250Y152969
X316250Y152969
X316250Y122969
X296250Y122969
X276250Y122969
X246250Y122969
X246250Y97969
X276250Y97969
X296250Y97969
X316250Y97969
X316250Y67969
X296250Y67969
X276250Y67969
X246250Y67969
X366250Y92969
X366250Y102969
X366250Y117969
X366250Y127969
X366250Y142969
X366250Y152969
X366250Y177969
X366250Y187969
X366250Y197969
X366250Y207969
X366250Y237969
X366250Y247969
X366250Y257969
X366250Y267969
X366250Y277969
T03
X26250Y22969
X26250Y232969
X36250Y232969
X46250Y232969
X66250Y232969
X76250Y232969
X86250Y232969
X26250Y302969
X376250Y277969
X376250Y267969
X376250Y257969
X376250Y247969
X376250Y237969
X386250Y222969
X396250Y222969
X376250Y207969
X376250Y197969
X376250Y187969
X376250Y177969
X386250Y162969
X396250Y162969
X376250Y152969
X376250Y142969
X376250Y127969
X376250Y117969
X376250Y102969
X376250Y92969
X386250Y77969
X396250Y77969
X386250Y22969
X386250Y302969
M30
